<svg viewBox="0 0 18 18" fill="none" xmlns="http://www.w3.org/2000/svg">
<g clip-path="url(#clip0)">
<path d="M3.86661 17.1317C3.88693 17.6168 4.28616 17.9997 4.77167 17.9997H13.2283C13.7138 17.9997 14.1131 17.6168 14.1334 17.1317L14.7373 4.38281H3.2627L3.86661 17.1317ZM10.913 7.5494C10.913 7.34626 11.0777 7.1815 11.2809 7.1815H11.8694C12.0725 7.1815 12.2374 7.34622 12.2374 7.5494V14.8331C12.2374 15.0363 12.0727 15.201 11.8694 15.201H11.2809C11.0778 15.201 10.913 15.0364 10.913 14.8331V7.5494ZM8.33785 7.5494C8.33785 7.34626 8.50257 7.1815 8.70575 7.1815H9.29425C9.49734 7.1815 9.66215 7.34622 9.66215 7.5494V14.8331C9.66215 15.0363 9.49748 15.201 9.29425 15.201H8.70575C8.50261 15.201 8.33785 15.0364 8.33785 14.8331V7.5494ZM5.76262 7.5494C5.76262 7.34626 5.92733 7.1815 6.13052 7.1815H6.71906C6.9222 7.1815 7.08696 7.34622 7.08696 7.5494V14.8331C7.08696 15.0363 6.92225 15.201 6.71906 15.201H6.13052C5.92738 15.201 5.76262 15.0364 5.76262 14.8331V7.5494Z" fill="#fff"/>
<path d="M15.1393 0.92727H11.238V0.189702C11.238 0.0849582 11.1531 0 11.0483 0H6.95148C6.84673 0 6.76182 0.0849582 6.76182 0.189702V0.927226H2.86044C2.54647 0.927226 2.29199 1.18175 2.29199 1.49571V3.28156H15.7078V1.49576C15.7078 1.18179 15.4533 0.92727 15.1393 0.92727Z" fill="#fff"/>
</g>
</svg>
